<?xml version="1.0" standalone="no"?>
<!DOCTYPE svg PUBLIC "-//W3C//DTD SVG 20010904//EN"
 "http://www.w3.org/TR/2001/REC-SVG-20010904/DTD/svg10.dtd">
<svg version="1.0" xmlns="http://www.w3.org/2000/svg"
 width="96.000000pt" height="96.000000pt" viewBox="0 0 96.000000 96.000000"
 preserveAspectRatio="xMidYMid meet">
<metadata>
Created by potrace 1.14, written by Peter Selinger 2001-2017
</metadata>
<g transform="translate(0.000000,96.000000) scale(0.100000,-0.100000)"
fill="#000000" stroke="none">
<path d="M395 851 c-52 -23 -101 -79 -116 -133 -7 -24 -20 -54 -29 -68 -24
-36 -40 -87 -40 -131 0 -29 -5 -39 -20 -44 -34 -11 -70 -63 -70 -102 0 -27 8
-43 34 -69 19 -19 43 -34 54 -34 12 0 23 -9 27 -19 25 -79 145 -161 234 -161
102 0 195 50 238 130 16 27 33 50 40 50 46 0 93 55 93 108 0 34 -39 87 -70 97
-15 5 -20 15 -20 44 0 44 -16 95 -40 131 -9 14 -22 44 -29 68 -24 86 -111 152
-201 152 -25 0 -63 -9 -85 -19z m184 -44 c114 -76 101 -247 -24 -307 -88 -43
-191 -6 -235 85 -59 122 41 265 174 251 27 -3 65 -16 85 -29z m-253 -288 c39
-41 103 -69 155 -69 84 1 167 59 194 136 l13 37 13 -24 c10 -17 14 -64 14
-164 0 -117 -3 -146 -19 -175 -57 -108 -172 -160 -284 -129 -64 18 -143 97
-161 161 -17 60 -11 273 8 307 l13 24 13 -37 c8 -21 26 -51 41 -67z m-130
-108 c-9 -10 -16 -26 -16 -36 0 -10 7 -26 16 -36 9 -10 14 -24 12 -31 -7 -21
-58 38 -58 67 0 29 51 88 58 67 2 -7 -3 -21 -12 -31z m604 -1 c17 -31 11 -59
-17 -88 -29 -29 -47 -14 -19 17 20 22 21 55 1 71 -8 7 -15 19 -15 27 0 19 36
0 50 -27z"/>
<path d="M465 677 c-14 -46 -25 -88 -25 -95 0 -24 30 -11 36 16 5 24 31 111
41 138 2 6 -3 14 -11 17 -12 5 -21 -12 -41 -76z"/>
<path d="M382 707 c-28 -30 -28 -48 3 -77 20 -19 28 -21 38 -11 10 10 7 16
-11 28 l-23 16 22 23 c11 12 18 27 14 33 -9 16 -19 13 -43 -12z"/>
<path d="M534 719 c-3 -6 3 -21 15 -33 l21 -23 -20 -18 c-23 -21 -26 -35 -7
-35 24 0 59 46 53 68 -9 26 -53 56 -62 41z"/>
<path d="M342 378 c-15 -15 -15 -51 0 -66 15 -15 51 -15 66 0 28 28 7 78 -33
78 -12 0 -26 -5 -33 -12z"/>
<path d="M550 376 c-31 -38 9 -89 54 -68 45 20 30 82 -20 82 -12 0 -27 -7 -34
-14z"/>
<path d="M420 250 c0 -26 38 -59 62 -55 29 6 58 34 58 57 0 15 -8 18 -60 18
-53 0 -60 -2 -60 -20z"/>
</g>
</svg>
